<svg width="436" height="10" viewBox="0 0 436 10" fill="none" xmlns="http://www.w3.org/2000/svg">
<g clip-path="url(#clip0_21_66)">
<path d="M395.152 0.48495C395.412 0.585284 395.845 0.501672 396.139 0.317726L396.174 0.342809C396.537 0.568562 396.849 0.250836 396.987 0.309365C397.472 0.510033 397.818 0.493311 398.354 0.317726C398.493 0.27592 399.15 0.526756 399.618 0.568562L399.964 0.602007C400.397 0.535117 401.037 0.493311 401.383 0.526756C401.729 0.560201 403.148 0.677258 403.789 0.744147L404.291 0.543478C404.291 0.543478 404.516 0.518395 404.619 0.526756C405.208 0.618729 405.796 0.794314 406.385 0.794314H406.852C407.302 0.643813 407.631 0.76087 407.562 1.05351L408.479 0.710702L409.24 0.426421C409.985 0.560201 411.006 0.602007 411.508 0.526756C412.009 0.451505 413.515 0.819398 414.052 0.802676C414.588 0.785953 416.388 1.05351 416.925 1.10368L416.89 0.785953C416.89 0.785953 417.219 0.710702 417.288 0.727425L417.98 0.944816C418.828 0.877926 419.78 0.919732 420.074 1.03679C420.369 1.15385 421.476 0.90301 421.753 0.961538C422.03 1.02007 423.069 1.11204 423.432 1.02007C423.796 0.928094 425.786 0.961539 426.928 0.978261L427.915 1.17893C428.226 1.24582 428.849 1.04515 429.334 1.02007L429.697 1.00334C430.113 1.05351 430.597 1.06187 430.788 1.00334H430.805L431.705 1.35452C432.778 1.17057 433.782 1.21237 433.937 1.43813C434.093 1.66388 434.958 2.21572 435.166 2.199C435.374 2.18227 435.962 2.199 435.997 2.25752C436.032 2.31605 435.772 2.55853 435.426 2.6505C435.08 2.74247 435.045 3.4699 434.474 3.85452L434.664 4.3311L434.716 4.4398C434.699 4.60702 434.56 4.70736 434.422 4.65719C434.284 4.60702 433.885 4.59866 433.747 4.72408C434.733 4.91639 433.574 5.23411 434.041 5.45151C434.093 5.47659 434.093 5.55184 434.041 5.57692L433.297 5.89465C433.262 6.13712 432.466 6.40468 431.514 6.48829L430.666 6.17893L430.528 6.12876C429.974 6.23746 429.091 6.33779 428.555 6.34615C428.018 6.35452 426.218 6.28763 425.734 6.33779H424.817C424.332 6.30435 423.761 6.26254 423.553 6.26254C423.346 6.26254 422.549 6.23746 422.29 6.2709C422.03 6.30435 420.334 6.33779 419.088 6.33779C417.842 6.33779 413.982 6.32107 413.256 6.27926C412.529 6.23746 410.625 6.5301 410.452 6.5301H410.296L409.362 6.57191C408.358 6.48829 407.146 6.47157 406.662 6.5301C406.177 6.58863 404.671 6.40468 404.273 6.42977C403.875 6.45485 402.491 6.50502 402.023 6.45485C401.556 6.40468 399.272 6.52174 398.181 6.5301H397.16C396.139 6.5301 395.135 6.5301 394.114 6.5301C393.491 6.5301 392.505 6.62207 392.314 6.51338C391.847 6.24582 391.241 6.62207 390.895 6.38796C390.826 6.34615 390.462 6.33779 390.255 6.35452C389.787 6.38796 389.095 6.53846 388.905 6.47157L388.23 6.2291C387.728 6.40468 387.036 6.48829 386.689 6.4214C386.343 6.35452 385.599 6.32107 385.201 6.26254C384.803 6.20401 383.557 6.42977 383.211 6.33779C382.865 6.24582 381.636 6.55518 381.238 6.58863C380.84 6.62207 379.386 6.32943 378.659 6.2709L377.88 6.49666L377.326 6.65552C376.253 6.58027 375.18 6.47993 374.955 6.42977C374.73 6.3796 373.709 6.31271 373.155 6.2709C372.602 6.2291 370.473 6.63044 369.504 6.80602L368.811 6.34615C368.811 6.34615 368.275 6.29599 368.154 6.34615C367.409 6.63043 366.544 6.15385 365.783 6.41304C365.54 6.49666 365.073 6.5301 364.744 6.51338C364.104 6.47993 363.463 6.35452 362.823 6.35452H362.269C361.664 6.43813 360.885 6.48829 360.539 6.46321C360.192 6.43813 358.946 6.42977 358.652 6.36288C358.358 6.29599 357.216 6.54682 356.835 6.61371C356.454 6.6806 355.433 6.39632 355.07 6.46321C354.706 6.5301 353.045 6.47993 352.387 6.42977H351.781C351.193 6.42977 350.604 6.51338 350.016 6.51338H348.926C347.731 6.43813 345.793 6.38796 344.616 6.40468L343.63 6.53846L342.764 6.65552C341.882 6.57191 340.341 6.51338 339.32 6.5301H329.957C329.023 6.5301 328.088 6.51338 327.153 6.5301H326.565C325.925 6.60535 325.319 6.67224 325.198 6.6806C325.077 6.68896 324.211 6.6388 323.502 6.58027C322.792 6.52174 318.829 6.66388 318.535 6.62207C318.24 6.58027 317.462 6.58863 317.167 6.57191C316.873 6.55518 315.437 6.69732 314.675 6.71405H302.491C301.73 6.71405 299.428 6.74749 297.403 6.78094C295.378 6.81438 289.407 7.01505 288.646 7.14047L288.421 7.05686L287.832 6.84783C287.434 6.98161 286.638 6.97324 286.067 6.83947L285.34 7.05686C284.959 7.17391 284.128 7.08194 283.505 7.08194H282.484C281.377 7.08194 280.079 7.11539 279.594 7.16555C279.109 7.21572 277.431 7.01505 276.929 6.87291L276.565 7.0903L276.046 7.40803C275.631 7.23244 274.835 7.11539 274.263 7.14883C273.692 7.18227 271.84 7.2408 271.39 7.23244C270.94 7.22408 269.21 7.3495 268.396 7.29097L267.652 7.26589L266.873 7.2408C266.008 7.25753 264.935 7.30769 264.485 7.36622C264.035 7.42475 262.702 7.45819 262.01 7.59197L261.197 7.46656C260.522 7.36622 259.656 7.44147 258.878 7.44147H258.099C257.233 7.44147 256.178 7.52508 255.728 7.6087H254.914C254.482 7.52508 252.595 7.47492 250.743 7.49164C248.891 7.50836 243.751 7.7592 243.44 7.95151L242.886 7.68395C242.765 7.62542 242.003 7.77592 241.536 7.801L241.069 7.82609C240.549 7.82609 239.771 7.70903 239.321 7.57525C238.871 7.44147 237.261 7.801 236.759 7.801C236.257 7.801 234.475 7.801 233.956 7.801C233.436 7.801 231.602 7.85953 231.013 7.91806H230.477C229.975 7.91806 229.456 7.80937 228.971 7.81773L228.002 7.84281C226.946 7.82609 225.319 7.81773 224.402 7.82609C223.485 7.83445 220.733 8.02676 220.162 7.96823H219.643L218.899 7.93478C218.085 7.97659 217.064 7.97659 216.649 7.93478C216.233 7.89298 214.814 8.1689 214.26 8.19398C213.706 8.21906 211.647 8.19398 211.007 8.19398C210.366 8.19398 207.58 8.19398 206.247 8.24415C204.914 8.29432 200.259 8.35284 198.874 8.3612C197.49 8.36957 193.648 8.39465 193.371 8.46154C193.094 8.52843 191.813 8.35284 191.45 8.33612C191.086 8.3194 189.719 8.55351 189.061 8.57023C188.404 8.58696 185.773 8.57023 184.7 8.57023C183.627 8.57023 179.958 8.57023 178.919 8.6204C177.881 8.67057 173.45 8.72074 171.391 8.72074H167.566C165.42 8.72074 163.205 8.72074 162.634 8.7291L162.218 8.89632C161.82 9.05518 161.474 8.54515 160.92 8.86288L160.816 8.92977C160.314 8.88796 159.588 8.91304 159.207 8.97993C158.826 9.04682 157.355 8.80435 156.49 8.89632H155.694L149.601 8.91304C142.904 8.91304 136.725 8.84616 135.877 8.7709L135.219 9.05518L135.116 9.09699C134.839 9.08027 134.216 9.03846 133.714 9.00502C133.212 8.97157 131.793 8.97993 131.637 9.04682C131.481 9.11371 130.72 8.96321 130.512 9.00502C130.304 9.04682 129.318 9.07191 128.833 9.05518L128.383 9.0301L126.254 9.08863H125.787C125.285 9.08863 124.783 9.03846 124.679 8.95485C124.576 8.87124 123.624 9.0301 123.174 9.03846L122.758 9.01338C122.551 9.00502 122.291 8.89632 122.187 8.91304L120.595 9.25585C118.743 9.15552 115.68 9.08027 113.793 9.08863H107.788C106.68 9.10535 105.348 9.08863 104.811 9.03846C104.275 8.98829 102.388 9.37291 101.557 9.50669L101.004 9.13043C100.934 9.08863 100.502 9.06355 100.363 9.09699L99.5844 9.31438C98.7017 9.22241 97.2653 9.18896 96.3653 9.23913L95.5519 9.27258C94.6173 9.30602 93.6827 9.27258 92.7481 9.27258H81.1179C80.1833 9.27258 78.816 9.23913 78.1065 9.18896C77.3969 9.1388 75.372 9.40635 75.1124 9.35619C74.8528 9.30602 73.2605 9.25585 72.1529 9.23077C71.0452 9.20569 67.8434 9.42308 67.4627 9.41472C67.0819 9.40635 65.8531 9.39799 65.5762 9.31438C65.2993 9.23077 64.0186 9.4398 63.6378 9.46488C63.2571 9.48997 62.0629 9.30602 61.5783 9.36455C61.0937 9.42308 59.4669 9.46488 59.0169 9.48997C58.5669 9.51505 57.0958 9.3311 56.767 9.36455C56.4382 9.39799 54.8286 9.43144 53.9633 9.43144C53.0979 9.43144 49.6019 9.38963 48.0962 9.32274L46.8155 9.62375L46.5905 9.67391C46.2271 9.64047 45.3098 9.62375 44.5483 9.64047L44.0637 9.52341L43.2676 9.3311C42.6964 9.48161 41.7965 9.56522 41.2946 9.53177L40.7234 9.61539L40.1004 9.699C39.287 9.65719 38.3524 9.64883 38.0062 9.68227C37.6601 9.71572 35.1506 9.44816 33.0045 9.38127L31.2219 9.79097L30.5816 9.94147C29.872 9.87458 28.9028 9.81605 28.4355 9.82442C27.9682 9.83278 26.3414 9.83278 25.8741 9.8495C25.4068 9.86622 24.3165 9.76589 24.1261 9.79097C23.9357 9.81605 22.8627 9.83278 22.2569 9.82442C21.6512 9.81605 19.6609 9.79933 19.1763 9.78261C18.6917 9.76589 17.2033 9.81605 16.7879 9.76589C16.3726 9.71572 15.4034 9.96656 15.2822 9.91639C15.1611 9.86622 14.5899 9.7408 14.4342 9.80769C14.2784 9.87458 13.3092 10 12.8073 10H12.34C11.4747 10 10.6267 10 9.7613 10H9.29402C9.08633 9.8495 8.82673 9.73244 8.7575 9.73244C8.68827 9.73244 8.42867 9.79933 8.39406 9.87458C8.35944 9.94983 7.14796 9.94983 6.33453 9.89967H5.0192C4.34423 9.8913 3.89425 9.86622 4.0154 9.8495C4.13655 9.83278 4.39615 9.68227 4.18847 9.57358C3.98078 9.46488 3.87694 9.04682 3.96348 8.91304C4.05001 8.77927 4.11924 8.37793 3.84233 8.37793C3.56542 8.37793 2.94237 8.41973 2.99429 8.4699C3.04621 8.52007 3.08082 8.67057 2.94237 8.68729C2.80391 8.70401 2.37124 8.60368 2.12894 8.51171C1.88664 8.41973 0.657849 8.2107 0.415552 8.10201C0.173254 7.99331 -0.25942 7.55017 0.207868 7.5C0.675156 7.44983 1.22898 8.02676 1.55781 8.14381H1.95587C2.09433 8.14381 2.2674 8.05184 2.35393 7.98495L2.40585 7.95151C2.31932 7.88462 2.14625 7.84281 2.0251 7.86789C1.90395 7.89298 1.50589 7.88462 1.50589 7.801C1.50589 7.71739 1.90395 7.44147 2.38854 7.3913C2.87314 7.34114 4.25769 7.08194 4.25769 6.97324C4.25769 6.86455 4.43076 6.51338 4.63845 6.6388C4.84613 6.76421 5.67687 6.96488 6.0057 6.81438L6.10954 6.67224C6.2653 6.48829 6.35184 6.5301 6.66336 6.61371L6.88835 6.67224C7.23449 6.67224 8.16907 6.68896 8.94788 6.68896C9.72669 6.68896 11.6131 6.38796 11.4401 6.35452C11.267 6.32107 11.8554 6.11204 13.1362 5.96154L14.5207 6.20401C14.7803 6.25418 15.0572 6.29599 15.3341 6.31271H15.5418C15.888 6.27926 15.9918 6.14548 15.8014 6.03679C15.6111 5.92809 15.2649 5.61037 15.5072 5.57692H15.7149C15.9572 5.60201 16.2514 5.71906 16.3726 5.69398L17.1514 5.51003C17.636 5.72742 18.1725 5.91137 18.3629 5.91973C18.5532 5.92809 19.3147 5.91973 19.1417 5.82776C18.9686 5.73579 19.1417 5.55184 19.5224 5.4097C19.9032 5.26756 21.3397 5.24248 21.5993 5.25084C21.8589 5.2592 22.9492 5.23411 23.33 5.25084C23.7107 5.26756 24.8876 5.23411 25.4241 5.301C25.9606 5.36789 27.0509 4.89967 27.3452 4.91639C27.6394 4.93311 28.1932 5.20067 28.2451 5.23411C28.2971 5.26756 28.522 5.30936 28.6086 5.25084V4.699C29.5258 4.77425 30.7373 4.93311 31.3258 5.05853L32.0527 4.8913L32.7103 4.7408C33.6276 4.69064 34.666 4.59866 35.0468 4.52341C35.4275 4.44816 36.3275 4.75753 36.5005 4.72408L36.5525 4.68227L36.6563 4.59866C36.864 4.57358 37.4005 4.59866 37.8851 4.64883H38.9581C39.6331 4.57358 40.3946 4.49833 40.6715 4.47324C40.9484 4.44816 42.1599 4.42308 42.6791 4.39799C43.1983 4.37291 45.0329 4.32274 45.5867 4.35619C46.1405 4.38963 47.9231 4.13043 48.477 4.10535C49.0308 4.08027 50.5884 4.20569 50.848 4.13043C51.1076 4.05518 52.0941 4.20569 52.3364 4.13043C52.5787 4.05518 53.4267 4.20569 53.5825 4.14716C53.7383 4.08863 54.2921 3.97993 54.4825 4.04682C54.6728 4.11371 55.3651 4.24749 55.6766 4.20569C55.9882 4.16388 57.217 4.13043 57.7189 4.14716C58.2208 4.16388 59.6745 4.09699 60.038 4.10535C60.4014 4.11371 61.561 4.05518 61.8379 4.00502C62.1148 3.95485 63.2052 3.88796 63.7071 3.84615C64.209 3.80435 65.7147 4.12207 66.0262 4.17224C66.3377 4.22241 66.7185 3.82943 66.8916 3.79599L66.9781 3.81271L67.705 3.97157C68.4492 3.85452 69.1241 3.74582 69.1934 3.7291H69.2453C69.6607 3.79599 70.1106 3.93813 70.4395 3.89632L70.8375 3.85452C71.1837 3.88796 71.6337 3.87124 71.8413 3.80435C72.049 3.73746 73.0355 3.80435 73.4855 3.87124L73.9009 3.90468L74.1778 3.92977C74.5066 3.90468 75.147 3.86288 75.5969 3.84615C76.0469 3.82943 77.6738 3.84615 78.2622 3.98829L78.9545 3.74582C79.3526 3.60368 80.166 3.83779 80.6852 3.61204C80.7371 3.58696 81.1006 3.69565 81.3429 3.7291L82.3813 3.84615C83.5235 3.77926 84.6831 3.66221 84.9427 3.5786C85.2023 3.49498 86.1542 3.64548 86.3619 3.54515C86.5696 3.44482 87.4003 3.69565 87.5214 3.72074C87.6426 3.74582 88.2829 3.76254 88.7502 3.80435C89.2175 3.84615 90.9482 3.64548 91.7789 3.61204L92.3847 3.85452L92.4712 3.88796C92.7308 3.91304 93.1116 3.84615 93.3193 3.75418C93.5269 3.66221 94.0981 3.5786 94.4442 3.55351C94.7904 3.52843 96.5037 3.59532 97.421 3.67057L98.1479 3.36957C98.3383 3.29431 98.9613 3.40301 99.2729 3.34448L99.9997 3.2107C100.623 3.35284 101.35 3.47826 101.592 3.49498C101.834 3.51171 102.803 3.41973 103.15 3.4699L103.461 3.53679C103.859 3.62876 104.05 3.18562 104.569 3.4699C104.621 3.49498 105.14 3.3612 105.451 3.35284H105.884C106.351 3.40301 106.888 3.46154 107.044 3.48662C107.199 3.51171 108.238 3.45318 108.861 3.4699C109.484 3.48662 111.111 3.20234 111.284 3.23579C111.457 3.26923 112.288 3.46154 112.72 3.60368L113.153 3.3194L113.811 2.88462C114.78 3.06856 116.009 3.25251 116.562 3.31104C117.116 3.36957 118.934 3.15217 119.349 3.07692C119.764 3.00167 120.924 2.99331 121.339 2.95151L121.616 3.02676L121.91 3.11037C122.17 3.24415 122.655 3.24415 123.001 3.11037L123.278 3.00167L123.33 2.98495C123.503 2.95987 123.797 2.98495 124.004 3.0602C124.212 3.13545 124.956 3.25251 125.164 3.17726C125.372 3.10201 127.154 3.10201 127.5 3.14381C127.847 3.18562 128.677 3.16054 129.006 3.19398C129.335 3.22742 130.114 3.14381 130.391 3.15217C130.668 3.16054 131.689 3.10201 132.052 3.01839C132.416 2.93478 133.939 3.18562 134.666 3.23579L135.133 2.96823C135.133 2.96823 135.427 2.95987 135.583 2.96823L136.535 3.02676C137.573 3.08528 138.837 3.04348 139.321 2.93478C139.806 2.82609 141.623 3.12709 142.229 3.11873L142.731 3.06856L143.198 3.01839C143.717 3.01839 144.548 2.95987 145.05 2.9097C145.552 2.85953 146.902 3.15217 147.075 3.1689L147.196 3.14381L148.563 2.90134C150.155 2.93478 151.782 2.95987 152.18 2.95987C152.578 2.95987 154.067 3.01003 154.69 3.19398L155.226 2.80936L155.469 2.64214C156.126 2.72575 156.836 2.86789 157.026 2.95987C157.217 3.05184 158.22 2.80936 158.497 2.78428C158.774 2.7592 159.622 2.95151 159.899 2.96823L160.02 2.92642L160.678 2.69231C161.318 2.82609 162.201 2.96823 162.651 3.00167C163.101 3.03512 164.382 2.89298 164.693 2.82609C165.005 2.7592 166.078 2.90134 166.251 2.87625C166.424 2.85117 166.995 2.72575 167.185 2.6505C167.376 2.57525 168.051 2.70067 168.224 2.6087L168.743 2.70903L169.331 2.82609C170.197 2.7592 171.356 2.65886 171.91 2.60033C172.464 2.54181 173.918 2.69231 174.177 2.66722C174.437 2.64214 175.441 2.70067 175.891 2.7592L176.323 2.77592H176.479C176.721 2.66722 176.964 2.66722 177.016 2.77592C177.068 2.88462 177.535 3.15217 177.864 3.06856C178.193 2.98495 179.283 2.74247 179.56 2.68395C179.837 2.62542 181.792 2.61706 182.139 2.6505C182.485 2.68395 183.592 2.45819 184.025 2.43311C184.458 2.40803 185.911 2.44147 186.292 2.50836C186.673 2.57525 188.542 2.48328 189.511 2.47492L190.117 2.32441L190.654 2.19064C191 2.29933 191.398 2.44147 191.571 2.5C191.744 2.55853 193.198 2.44983 193.942 2.3495C194.686 2.24916 196.988 2.28261 197.299 2.32441C197.611 2.36622 198.771 2.37458 199.203 2.34114C199.636 2.30769 201.159 2.25752 201.609 2.27425C202.059 2.29097 203.27 2.14883 203.513 2.09866C203.755 2.0485 204.465 2.23244 204.551 2.24916H204.603C205.018 2.18227 205.399 2.08194 205.814 2.06522C206.178 2.04849 206.593 2.18227 206.939 2.15719L207.476 2.12375C208.082 2.09866 208.878 2.05686 209.259 2.01505C209.639 1.97324 210.539 2.16555 210.626 2.0903L210.747 2.03177L210.833 1.98997C210.989 1.96488 211.612 1.98997 212.201 2.04013C212.789 2.0903 215.42 1.94816 215.87 1.99833L216.233 2.07358L216.683 2.16555C217.047 2.06522 217.704 2.04013 218.12 2.09866L218.414 2.05686L218.95 1.98161C219.47 1.8311 220.162 1.74749 220.456 1.79766C220.75 1.84783 221.91 1.8311 222.291 1.77258C222.671 1.71405 223.45 1.73077 223.762 1.70569C224.073 1.6806 224.973 1.74749 225.25 1.7893C225.527 1.8311 226.34 1.74749 226.444 1.80602C226.548 1.86455 227.24 1.96488 227.725 1.90635C228.21 1.84783 231.048 1.87291 232.017 1.85619C232.986 1.83946 234.821 1.60535 235.184 1.56355L235.669 1.61371L236.604 1.71405C237.711 1.70569 238.975 1.69732 239.39 1.69732L239.805 1.62207L240.342 1.52174C241.051 1.52174 241.934 1.53846 242.28 1.58027C242.626 1.62207 243.855 1.53846 244.167 1.56355L244.444 1.58863L244.703 1.61371C244.98 1.6388 245.949 1.61371 246.849 1.56355L247.645 1.50502L248.32 1.45485C249.082 1.41304 249.757 1.37124 249.826 1.37124C249.895 1.37124 250.363 1.4214 250.778 1.45485C251.193 1.48829 252.526 1.52174 252.872 1.57191C253.218 1.62207 254.084 1.78094 254.205 1.69732C254.326 1.61371 254.932 1.51338 255.174 1.51338C255.416 1.51338 256.351 1.31271 256.87 1.29599C257.389 1.27926 259.483 1.2709 260.314 1.24582C261.145 1.22074 263.654 1.32943 264.035 1.36288C264.416 1.39632 265.506 1.18729 265.766 1.22074C266.025 1.25418 266.493 1.25418 266.666 1.2709C266.839 1.28763 268.033 1.19565 269.037 1.09532L269.954 1.13712L270.629 1.17057C271.183 1.05351 272.065 1.02843 272.602 1.10368L273.087 1.1204L273.588 1.13712C274.142 1.06187 274.886 1.08696 275.25 1.20401C275.613 1.32107 277.188 0.911371 278.019 0.844482L278.711 1.06187C278.711 1.06187 279.023 1.03679 279.109 0.994983L279.231 0.928094C279.3 0.83612 279.594 0.735786 279.871 0.69398C280.148 0.652174 281.117 0.827759 281.48 0.877926C281.844 0.928094 283.194 0.90301 283.54 0.944816C283.886 0.986622 284.648 0.919733 284.925 0.90301C285.201 0.886288 286.396 0.953177 286.88 0.994983C287.365 1.03679 289.113 0.861204 289.667 0.911371L289.892 0.83612C290.601 0.585284 290.844 1.01171 291.276 0.944816L291.726 0.869565C292.159 0.719064 292.834 0.576923 293.215 0.543478C293.595 0.510033 295.049 0.585284 295.413 0.618729C295.776 0.652174 297.126 0.635452 297.489 0.585284C297.853 0.535117 299.151 0.635452 299.497 0.702341C299.843 0.769231 301.176 0.702341 301.868 0.635452L302.595 0.752508C303.097 0.83612 303.841 0.827759 304.239 0.560201L305.727 0.451505C307.285 0.69398 308.895 0.643813 310.418 0.48495C311.006 0.426421 311.543 0.819398 312.131 0.443144C312.304 0.326087 313.291 0.384615 313.896 0.401338H314.243C314.606 0.48495 315.039 0.526756 315.212 0.493311C315.385 0.459866 315.817 0.376254 316.164 0.284281C316.51 0.192308 317.462 0.526756 317.773 0.501672C318.085 0.476589 318.881 0.326087 319.037 0.309365C319.192 0.292642 319.902 0.459866 320.248 0.55184H320.577C320.906 0.55184 321.217 0.434783 321.563 0.392977L322.134 0.326087C322.723 0.41806 323.346 0.510033 323.519 0.526756C323.692 0.543478 324.125 0.476589 324.332 0.426421C324.54 0.376254 325.284 0.493311 325.457 0.476589L325.596 0.434783C325.786 0.384615 325.942 0.250836 326.098 0.250836C326.496 0.267559 326.894 0.384615 327.275 0.376254C327.759 0.359532 328.227 0.234114 328.728 0.20903L329.161 0.183946C329.628 0.225753 330.338 0.200669 330.701 0.133779L331.082 0.259197L331.324 0.342809C331.74 0.359532 332.588 0.384615 333.176 0.409699C333.765 0.434783 335.599 0.259197 335.997 0.342809C336.395 0.426421 338.593 0.309365 339.995 0.434783L341.311 0.200669C341.691 0.133779 342.314 0.125418 342.678 0.200669L343.318 0.326087C343.924 0.250836 344.703 0.108696 345.066 0.0083612H345.395C345.724 0.0083612 346.053 0.125418 346.364 0.192308L346.537 0.234114C346.71 0.292642 347.766 0.367893 348.908 0.409699C350.051 0.451505 352.906 0.0334448 352.975 0.0501672C353.045 0.0668896 353.183 0.14214 353.287 0.175585C353.391 0.20903 354.273 0.167224 354.775 0.133779C355.277 0.100334 357.043 0.0334448 357.527 0.0585284C358.012 0.083612 359.552 0.309365 359.95 0.384615C360.348 0.459866 361.594 0.267559 361.906 0.367893C362.217 0.468227 363.619 0.125418 364.242 0L364.952 0.267559L365.263 0.384615C366.198 0.27592 367.669 0.175585 368.534 0.167224L369.313 0.183946L370.127 0.200669C370.992 0.284281 372.169 0.225753 372.74 0.0668896L373.484 0.317726C374.073 0.510033 374.73 -0.041806 375.509 0.225753C376.167 0.451505 376.721 0.401338 377.292 0.175585C377.326 0.158863 377.447 0.167224 377.517 0.175585L378.053 0.267559C378.642 0.301003 379.299 0.351171 379.524 0.376254C379.749 0.401338 380.805 0.234114 381.307 0.175585H381.74L382.64 0.200669C383.626 0.200669 385.253 0.175585 386.274 0.158863L387.209 0.175585H387.797C388.437 0.259197 389.216 0.334448 389.545 0.359532C389.874 0.384615 390.67 0.267559 390.912 0.234114C391.155 0.200669 391.968 0.359532 392.193 0.376254L392.228 0.351171L392.712 0.0083612C393.266 0.192308 394.876 0.292642 395.135 0.392977L395.152 0.48495Z" fill="#1C50FE"/>
</g>
<defs>
<clipPath id="clip0_21_66">
<rect width="436" height="10" fill="white"/>
</clipPath>
</defs>
</svg>
