<svg width="327" height="10" viewBox="0 0 327 10" fill="none" xmlns="http://www.w3.org/2000/svg">
<path d="M296.364 0.48495C296.559 0.585284 296.884 0.501672 297.104 0.317726L297.13 0.342809C297.403 0.568562 297.636 0.250836 297.74 0.309365C298.104 0.510033 298.363 0.493311 298.766 0.317726C298.87 0.27592 299.363 0.526756 299.713 0.568562L299.973 0.602007C300.297 0.535117 300.778 0.493311 301.037 0.526756C301.297 0.560201 302.361 0.677258 302.842 0.744147L303.218 0.543478C303.218 0.543478 303.387 0.518395 303.465 0.526756C303.906 0.618729 304.347 0.794314 304.789 0.794314H305.139C305.477 0.643813 305.723 0.76087 305.671 1.05351L306.359 0.710702L306.93 0.426421C307.488 0.560201 308.254 0.602007 308.631 0.526756C309.007 0.451505 310.136 0.819398 310.539 0.802676C310.941 0.785953 312.291 1.05351 312.693 1.10368L312.668 0.785953C312.668 0.785953 312.914 0.710702 312.966 0.727425L313.485 0.944816C314.121 0.877926 314.835 0.919732 315.056 1.03679C315.277 1.15385 316.107 0.90301 316.315 0.961538C316.523 1.02007 317.301 1.11204 317.574 1.02007C317.847 0.928094 319.339 0.961539 320.196 0.978261L320.936 1.17893C321.17 1.24582 321.637 1.04515 322 1.02007L322.273 1.00334C322.584 1.05351 322.948 1.06187 323.091 1.00334H323.104L323.779 1.35452C324.583 1.17057 325.336 1.21237 325.453 1.43813C325.57 1.66388 326.219 2.21572 326.375 2.199C326.53 2.18227 326.972 2.199 326.998 2.25752C327.024 2.31605 326.829 2.55853 326.569 2.6505C326.31 2.74247 326.284 3.4699 325.855 3.85452L325.998 4.3311L326.037 4.4398C326.024 4.60702 325.92 4.70736 325.816 4.65719C325.713 4.60702 325.414 4.59866 325.31 4.72408C326.05 4.91639 325.18 5.23411 325.531 5.45151C325.57 5.47659 325.57 5.55184 325.531 5.57692L324.973 5.89465C324.947 6.13712 324.35 6.40468 323.636 6.48829L323 6.17893L322.896 6.12876C322.481 6.23746 321.819 6.33779 321.416 6.34615C321.014 6.35452 319.664 6.28763 319.3 6.33779H318.612C318.249 6.30435 317.821 6.26254 317.665 6.26254C317.509 6.26254 316.912 6.23746 316.717 6.2709C316.523 6.30435 315.251 6.33779 314.316 6.33779C313.381 6.33779 310.487 6.32107 309.942 6.27926C309.397 6.23746 307.969 6.5301 307.839 6.5301H307.722L307.021 6.57191C306.268 6.48829 305.36 6.47157 304.996 6.5301C304.633 6.58863 303.504 6.40468 303.205 6.42977C302.906 6.45485 301.868 6.50502 301.518 6.45485C301.167 6.40468 299.454 6.52174 298.636 6.5301H297.87C297.104 6.5301 296.351 6.5301 295.586 6.5301C295.118 6.5301 294.378 6.62207 294.236 6.51338C293.885 6.24582 293.431 6.62207 293.171 6.38796C293.119 6.34615 292.847 6.33779 292.691 6.35452C292.341 6.38796 291.821 6.53846 291.679 6.47157L291.172 6.2291C290.796 6.40468 290.277 6.48829 290.017 6.4214C289.757 6.35452 289.199 6.32107 288.901 6.26254C288.602 6.20401 287.668 6.42977 287.408 6.33779C287.148 6.24582 286.227 6.55518 285.928 6.58863C285.63 6.62207 284.539 6.32943 283.994 6.2709L283.41 6.49666L282.995 6.65552C282.19 6.58027 281.385 6.47993 281.216 6.42977C281.048 6.3796 280.282 6.31271 279.867 6.2709C279.451 6.2291 277.855 6.63044 277.128 6.80602L276.609 6.34615C276.609 6.34615 276.206 6.29599 276.115 6.34615C275.557 6.63043 274.908 6.15385 274.337 6.41304C274.155 6.49666 273.805 6.5301 273.558 6.51338C273.078 6.47993 272.598 6.35452 272.117 6.35452H271.702C271.248 6.43813 270.664 6.48829 270.404 6.46321C270.144 6.43813 269.21 6.42977 268.989 6.36288C268.768 6.29599 267.912 6.54682 267.626 6.61371C267.341 6.6806 266.575 6.39632 266.302 6.46321C266.03 6.5301 264.784 6.47993 264.29 6.42977H263.836C263.395 6.42977 262.953 6.51338 262.512 6.51338H261.694C260.799 6.43813 259.345 6.38796 258.462 6.40468L257.722 6.53846L257.073 6.65552C256.411 6.57191 255.256 6.51338 254.49 6.5301H247.468C246.767 6.5301 246.066 6.51338 245.365 6.5301H244.924C244.444 6.60535 243.989 6.67224 243.898 6.6806C243.807 6.68896 243.158 6.6388 242.626 6.58027C242.094 6.52174 239.122 6.66388 238.901 6.62207C238.68 6.58027 238.096 6.58863 237.876 6.57191C237.655 6.55518 236.578 6.69732 236.006 6.71405H226.868C226.297 6.71405 224.571 6.74749 223.052 6.78094C221.533 6.81438 217.055 7.01505 216.484 7.14047L216.315 7.05686L215.874 6.84783C215.576 6.98161 214.978 6.97324 214.55 6.83947L214.005 7.05686C213.719 7.17391 213.096 7.08194 212.629 7.08194H211.863C211.032 7.08194 210.059 7.11539 209.696 7.16555C209.332 7.21572 208.073 7.01505 207.697 6.87291L207.424 7.0903L207.035 7.40803C206.723 7.23244 206.126 7.11539 205.698 7.14883C205.269 7.18227 203.88 7.2408 203.543 7.23244C203.205 7.22408 201.907 7.3495 201.297 7.29097L200.739 7.26589L200.155 7.2408C199.506 7.25753 198.701 7.30769 198.364 7.36622C198.026 7.42475 197.027 7.45819 196.508 7.59197L195.898 7.46656C195.391 7.36622 194.742 7.44147 194.158 7.44147H193.574C192.925 7.44147 192.133 7.52508 191.796 7.6087H191.186C190.861 7.52508 189.446 7.47492 188.057 7.49164C186.669 7.50836 182.813 7.7592 182.58 7.95151L182.164 7.68395C182.074 7.62542 181.502 7.77592 181.152 7.801L180.802 7.82609C180.412 7.82609 179.828 7.70903 179.491 7.57525C179.153 7.44147 177.946 7.801 177.569 7.801C177.193 7.801 175.856 7.801 175.467 7.801C175.077 7.801 173.701 7.85953 173.26 7.91806H172.858C172.481 7.91806 172.092 7.80937 171.728 7.81773L171.001 7.84281C170.21 7.82609 168.99 7.81773 168.302 7.82609C167.614 7.83445 165.55 8.02676 165.121 7.96823H164.732L164.174 7.93478C163.564 7.97659 162.798 7.97659 162.486 7.93478C162.175 7.89298 161.111 8.1689 160.695 8.19398C160.28 8.21906 158.735 8.19398 158.255 8.19398C157.775 8.19398 155.685 8.19398 154.685 8.24415C153.686 8.29432 150.194 8.35284 149.156 8.3612C148.117 8.36957 145.236 8.39465 145.028 8.46154C144.82 8.52843 143.86 8.35284 143.587 8.33612C143.315 8.3194 142.289 8.55351 141.796 8.57023C141.303 8.58696 139.33 8.57023 138.525 8.57023C137.72 8.57023 134.968 8.57023 134.19 8.6204C133.411 8.67057 130.088 8.72074 128.543 8.72074H125.675C124.065 8.72074 122.404 8.72074 121.975 8.7291L121.664 8.89632C121.365 9.05518 121.106 8.54515 120.69 8.86288L120.612 8.92977C120.236 8.88796 119.691 8.91304 119.405 8.97993C119.12 9.04682 118.016 8.80435 117.367 8.89632H116.77L112.201 8.91304C107.178 8.91304 102.544 8.84616 101.908 8.7709L101.415 9.05518L101.337 9.09699C101.129 9.08027 100.662 9.03846 100.285 9.00502C99.9089 8.97157 98.8445 8.97993 98.7276 9.04682C98.6108 9.11371 98.0397 8.96321 97.8839 9.00502C97.7282 9.04682 96.9883 9.07191 96.6249 9.05518L96.2874 9.0301L94.6908 9.08863H94.3403C93.9639 9.08863 93.5875 9.03846 93.5096 8.95485C93.4317 8.87124 92.7178 9.0301 92.3803 9.03846L92.0688 9.01338C91.913 9.00502 91.7183 8.89632 91.6404 8.91304L90.4463 9.25585C89.0574 9.15552 86.7599 9.08027 85.345 9.08863H80.8409C80.0102 9.10535 79.0107 9.08863 78.6083 9.03846C78.2059 8.98829 76.7911 9.37291 76.168 9.50669L75.7527 9.13043C75.7008 9.08863 75.3762 9.06355 75.2724 9.09699L74.6883 9.31438C74.0263 9.22241 72.9489 9.18896 72.274 9.23913L71.6639 9.27258C70.963 9.30602 70.262 9.27258 69.5611 9.27258H60.8384C60.1375 9.27258 59.112 9.23913 58.5798 9.18896C58.0477 9.1388 56.529 9.40635 56.3343 9.35619C56.1396 9.30602 54.9454 9.25585 54.1147 9.23077C53.2839 9.20569 50.8826 9.42308 50.597 9.41472C50.3114 9.40635 49.3899 9.39799 49.1822 9.31438C48.9745 9.23077 48.014 9.4398 47.7284 9.46488C47.4428 9.48997 46.5472 9.30602 46.1837 9.36455C45.8203 9.42308 44.6002 9.46488 44.2627 9.48997C43.9252 9.51505 42.8219 9.3311 42.5752 9.36455C42.3286 9.39799 41.1215 9.43144 40.4724 9.43144C39.8234 9.43144 37.2014 9.38963 36.0722 9.32274L35.1116 9.62375L34.9429 9.67391C34.6703 9.64047 33.9823 9.62375 33.4112 9.64047L33.0478 9.52341L32.4507 9.3311C32.0223 9.48161 31.3474 9.56522 30.9709 9.53177L30.5426 9.61539L30.0753 9.699C29.4652 9.65719 28.7643 9.64883 28.5047 9.68227C28.2451 9.71572 26.363 9.44816 24.7534 9.38127L23.4164 9.79097L22.9362 9.94147C22.404 9.87458 21.6771 9.81605 21.3266 9.82442C20.9762 9.83278 19.756 9.83278 19.4056 9.8495C19.0551 9.86622 18.2373 9.76589 18.0946 9.79097C17.9518 9.81605 17.147 9.83278 16.6927 9.82442C16.2384 9.81605 14.7457 9.79933 14.3822 9.78261C14.0188 9.76589 12.9025 9.81605 12.5909 9.76589C12.2794 9.71572 11.5525 9.96656 11.4617 9.91639C11.3708 9.86622 10.9425 9.7408 10.8256 9.80769C10.7088 9.87458 9.98192 10 9.6055 10H9.25503C8.60602 10 7.96999 10 7.32098 10H6.97051C6.81475 9.8495 6.62005 9.73244 6.56813 9.73244C6.51621 9.73244 6.3215 9.79933 6.29554 9.87458C6.26958 9.94983 5.36097 9.94983 4.7509 9.89967H3.7644C3.25817 9.8913 2.92069 9.86622 3.01155 9.8495C3.10241 9.83278 3.29711 9.68227 3.14135 9.57358C2.98559 9.46488 2.90771 9.04682 2.97261 8.91304C3.03751 8.77927 3.08943 8.37793 2.88175 8.37793C2.67406 8.37793 2.20678 8.41973 2.24572 8.4699C2.28466 8.52007 2.31062 8.67057 2.20678 8.68729C2.10293 8.70401 1.77843 8.60368 1.59671 8.51171C1.41498 8.41973 0.493387 8.2107 0.311664 8.10201C0.129941 7.99331 -0.194565 7.55017 0.155901 7.5C0.506367 7.44983 0.921734 8.02676 1.16836 8.14381H1.4669C1.57074 8.14381 1.70055 8.05184 1.76545 7.98495L1.80439 7.95151C1.73949 7.88462 1.60969 7.84281 1.51882 7.86789C1.42796 7.89298 1.12942 7.88462 1.12942 7.801C1.12942 7.71739 1.42796 7.44147 1.79141 7.3913C2.15485 7.34114 3.19327 7.08194 3.19327 6.97324C3.19327 6.86455 3.32307 6.51338 3.47884 6.6388C3.6346 6.76421 4.25765 6.96488 4.50427 6.81438L4.58215 6.67224C4.69898 6.48829 4.76388 6.5301 4.99752 6.61371L5.16626 6.67224C5.42587 6.67224 6.1268 6.68896 6.71091 6.68896C7.29502 6.68896 8.70986 6.38796 8.58006 6.35452C8.45026 6.32107 8.89159 6.11204 9.85212 5.96154L10.8905 6.20401C11.0852 6.25418 11.2929 6.29599 11.5006 6.31271H11.6564C11.916 6.27926 11.9939 6.14548 11.8511 6.03679C11.7083 5.92809 11.4487 5.61037 11.6304 5.57692H11.7862C11.9679 5.60201 12.1886 5.71906 12.2794 5.69398L12.8635 5.51003C13.227 5.72742 13.6294 5.91137 13.7721 5.91973C13.9149 5.92809 14.4861 5.91973 14.3563 5.82776C14.2265 5.73579 14.3563 5.55184 14.6418 5.4097C14.9274 5.26756 16.0047 5.24248 16.1994 5.25084C16.3941 5.2592 17.2119 5.23411 17.4975 5.25084C17.783 5.26756 18.6657 5.23411 19.0681 5.301C19.4705 5.36789 20.2882 4.89967 20.5089 4.91639C20.7295 4.93311 21.1449 5.20067 21.1838 5.23411C21.2228 5.26756 21.3915 5.30936 21.4564 5.25084V4.699C22.1444 4.77425 23.053 4.93311 23.4943 5.05853L24.0395 4.8913L24.5327 4.7408C25.2207 4.69064 25.9995 4.59866 26.2851 4.52341C26.5706 4.44816 27.2456 4.75753 27.3754 4.72408L27.4144 4.68227L27.4922 4.59866C27.648 4.57358 28.0504 4.59866 28.4138 4.64883H29.2186C29.7248 4.57358 30.296 4.49833 30.5036 4.47324C30.7113 4.44816 31.6199 4.42308 32.0093 4.39799C32.3988 4.37291 33.7747 4.32274 34.19 4.35619C34.6054 4.38963 35.9424 4.13043 36.3577 4.10535C36.7731 4.08027 37.9413 4.20569 38.136 4.13043C38.3307 4.05518 39.0706 4.20569 39.2523 4.13043C39.434 4.05518 40.0701 4.20569 40.1869 4.14716C40.3037 4.08863 40.7191 3.97993 40.8619 4.04682C41.0046 4.11371 41.5238 4.24749 41.7575 4.20569C41.9911 4.16388 42.9127 4.13043 43.2892 4.14716C43.6656 4.16388 44.7559 4.09699 45.0285 4.10535C45.3011 4.11371 46.1708 4.05518 46.3784 4.00502C46.5861 3.95485 47.4039 3.88796 47.7803 3.84615C48.1567 3.80435 49.286 4.12207 49.5197 4.17224C49.7533 4.22241 50.0389 3.82943 50.1687 3.79599L50.2336 3.81271L50.7787 3.97157C51.3369 3.85452 51.8431 3.74582 51.895 3.7291H51.934C52.2455 3.79599 52.583 3.93813 52.8296 3.89632L53.1282 3.85452C53.3878 3.88796 53.7252 3.87124 53.881 3.80435C54.0368 3.73746 54.7766 3.80435 55.1141 3.87124L55.4257 3.90468L55.6333 3.92977C55.88 3.90468 56.3602 3.86288 56.6977 3.84615C57.0352 3.82943 58.2553 3.84615 58.6967 3.98829L59.2159 3.74582C59.5144 3.60368 60.1245 3.83779 60.5139 3.61204C60.5528 3.58696 60.8254 3.69565 61.0071 3.7291L61.786 3.84615C62.6427 3.77926 63.5123 3.66221 63.707 3.5786C63.9017 3.49498 64.6156 3.64548 64.7714 3.54515C64.9272 3.44482 65.5502 3.69565 65.6411 3.72074C65.7319 3.74582 66.2122 3.76254 66.5627 3.80435C66.9131 3.84615 68.2112 3.64548 68.8342 3.61204L69.2885 3.85452L69.3534 3.88796C69.5481 3.91304 69.8337 3.84615 69.9894 3.75418C70.1452 3.66221 70.5736 3.5786 70.8332 3.55351C71.0928 3.52843 72.3778 3.59532 73.0658 3.67057L73.6109 3.36957C73.7537 3.29431 74.221 3.40301 74.4547 3.34448L74.9998 3.2107C75.4671 3.35284 76.0123 3.47826 76.194 3.49498C76.3757 3.51171 77.1026 3.41973 77.3622 3.4699L77.5959 3.53679C77.8944 3.62876 78.0372 3.18562 78.4266 3.4699C78.4655 3.49498 78.8549 3.3612 79.0886 3.35284H79.4131C79.7636 3.40301 80.1659 3.46154 80.2828 3.48662C80.3996 3.51171 81.1784 3.45318 81.6457 3.4699C82.113 3.48662 83.3331 3.20234 83.4629 3.23579C83.5927 3.26923 84.2158 3.46154 84.5403 3.60368L84.8648 3.3194L85.358 2.88462C86.0849 3.06856 87.0065 3.25251 87.4219 3.31104C87.8372 3.36957 89.2002 3.15217 89.5117 3.07692C89.8232 3.00167 90.6929 2.99331 91.0044 2.95151L91.2121 3.02676L91.4328 3.11037C91.6275 3.24415 91.9909 3.24415 92.2505 3.11037L92.4582 3.00167L92.4971 2.98495C92.627 2.95987 92.8476 2.98495 93.0034 3.0602C93.1591 3.13545 93.7173 3.25251 93.873 3.17726C94.0288 3.10201 95.3658 3.10201 95.6254 3.14381C95.885 3.18562 96.508 3.16054 96.7547 3.19398C97.0013 3.22742 97.5854 3.14381 97.7931 3.15217C98.0008 3.16054 98.7666 3.10201 99.0392 3.01839C99.3118 2.93478 100.454 3.18562 100.999 3.23579L101.35 2.96823C101.35 2.96823 101.57 2.95987 101.687 2.96823L102.401 3.02676C103.18 3.08528 104.127 3.04348 104.491 2.93478C104.854 2.82609 106.217 3.12709 106.672 3.11873L107.048 3.06856L107.398 3.01839C107.788 3.01839 108.411 2.95987 108.787 2.9097C109.164 2.85953 110.176 3.15217 110.306 3.1689L110.397 3.14381L111.422 2.90134C112.616 2.93478 113.837 2.95987 114.135 2.95987C114.434 2.95987 115.55 3.01003 116.017 3.19398L116.42 2.80936L116.601 2.64214C117.095 2.72575 117.627 2.86789 117.77 2.95987C117.912 3.05184 118.665 2.80936 118.873 2.78428C119.081 2.7592 119.717 2.95151 119.924 2.96823L120.015 2.92642L120.508 2.69231C120.989 2.82609 121.651 2.96823 121.988 3.00167C122.326 3.03512 123.286 2.89298 123.52 2.82609C123.754 2.7592 124.558 2.90134 124.688 2.87625C124.818 2.85117 125.246 2.72575 125.389 2.6505C125.532 2.57525 126.038 2.70067 126.168 2.6087L126.557 2.70903L126.999 2.82609C127.648 2.7592 128.517 2.65886 128.933 2.60033C129.348 2.54181 130.438 2.69231 130.633 2.66722C130.828 2.64214 131.581 2.70067 131.918 2.7592L132.243 2.77592H132.359C132.541 2.66722 132.723 2.66722 132.762 2.77592C132.801 2.88462 133.151 3.15217 133.398 3.06856C133.644 2.98495 134.462 2.74247 134.67 2.68395C134.878 2.62542 136.344 2.61706 136.604 2.6505C136.864 2.68395 137.694 2.45819 138.019 2.43311C138.343 2.40803 139.434 2.44147 139.719 2.50836C140.005 2.57525 141.407 2.48328 142.133 2.47492L142.588 2.32441L142.99 2.19064C143.25 2.29933 143.548 2.44147 143.678 2.5C143.808 2.55853 144.898 2.44983 145.456 2.3495C146.015 2.24916 147.741 2.28261 147.975 2.32441C148.208 2.36622 149.078 2.37458 149.402 2.34114C149.727 2.30769 150.869 2.25752 151.207 2.27425C151.544 2.29097 152.453 2.14883 152.634 2.09866C152.816 2.0485 153.348 2.23244 153.413 2.24916H153.452C153.764 2.18227 154.049 2.08194 154.361 2.06522C154.633 2.04849 154.945 2.18227 155.205 2.15719L155.607 2.12375C156.061 2.09866 156.658 2.05686 156.944 2.01505C157.229 1.97324 157.904 2.16555 157.969 2.0903L158.06 2.03177L158.125 1.98997C158.242 1.96488 158.709 1.98997 159.151 2.04013C159.592 2.0903 161.565 1.94816 161.902 1.99833L162.175 2.07358L162.512 2.16555C162.785 2.06522 163.278 2.04013 163.59 2.09866L163.81 2.05686L164.213 1.98161C164.602 1.8311 165.121 1.74749 165.342 1.79766C165.563 1.84783 166.432 1.8311 166.718 1.77258C167.004 1.71405 167.588 1.73077 167.821 1.70569C168.055 1.6806 168.73 1.74749 168.938 1.7893C169.145 1.8311 169.755 1.74749 169.833 1.80602C169.911 1.86455 170.43 1.96488 170.794 1.90635C171.157 1.84783 173.286 1.87291 174.013 1.85619C174.74 1.83946 176.116 1.60535 176.388 1.56355L176.752 1.61371L177.453 1.71405C178.283 1.70569 179.231 1.69732 179.542 1.69732L179.854 1.62207L180.256 1.52174C180.789 1.52174 181.451 1.53846 181.71 1.58027C181.97 1.62207 182.891 1.53846 183.125 1.56355L183.333 1.58863L183.527 1.61371C183.735 1.6388 184.462 1.61371 185.137 1.56355L185.734 1.50502L186.24 1.45485C186.811 1.41304 187.318 1.37124 187.37 1.37124C187.421 1.37124 187.772 1.4214 188.083 1.45485C188.395 1.48829 189.394 1.52174 189.654 1.57191C189.914 1.62207 190.563 1.78094 190.654 1.69732C190.744 1.61371 191.199 1.51338 191.38 1.51338C191.562 1.51338 192.263 1.31271 192.652 1.29599C193.042 1.27926 194.613 1.2709 195.236 1.24582C195.859 1.22074 197.741 1.32943 198.026 1.36288C198.312 1.39632 199.13 1.18729 199.324 1.22074C199.519 1.25418 199.869 1.25418 199.999 1.2709C200.129 1.28763 201.025 1.19565 201.778 1.09532L202.466 1.13712L202.972 1.17057C203.387 1.05351 204.049 1.02843 204.451 1.10368L204.815 1.1204L205.191 1.13712C205.607 1.06187 206.165 1.08696 206.437 1.20401C206.71 1.32107 207.891 0.911371 208.514 0.844482L209.034 1.06187C209.034 1.06187 209.267 1.03679 209.332 0.994983L209.423 0.928094C209.475 0.83612 209.696 0.735786 209.903 0.69398C210.111 0.652174 210.838 0.827759 211.11 0.877926C211.383 0.928094 212.395 0.90301 212.655 0.944816C212.915 0.986622 213.486 0.919733 213.693 0.90301C213.901 0.886288 214.797 0.953177 215.16 0.994983C215.524 1.03679 216.835 0.861204 217.25 0.911371L217.419 0.83612C217.951 0.585284 218.133 1.01171 218.457 0.944816L218.795 0.869565C219.119 0.719064 219.625 0.576923 219.911 0.543478C220.196 0.510033 221.287 0.585284 221.559 0.618729C221.832 0.652174 222.844 0.635452 223.117 0.585284C223.39 0.535117 224.363 0.635452 224.623 0.702341C224.882 0.769231 225.882 0.702341 226.401 0.635452L226.946 0.752508C227.323 0.83612 227.881 0.827759 228.179 0.560201L229.296 0.451505C230.464 0.69398 231.671 0.643813 232.813 0.48495C233.255 0.426421 233.657 0.819398 234.098 0.443144C234.228 0.326087 234.968 0.384615 235.422 0.401338H235.682C235.954 0.48495 236.279 0.526756 236.409 0.493311C236.539 0.459866 236.863 0.376254 237.123 0.284281C237.382 0.192308 238.096 0.526756 238.33 0.501672C238.563 0.476589 239.161 0.326087 239.277 0.309365C239.394 0.292642 239.926 0.459866 240.186 0.55184H240.433C240.679 0.55184 240.913 0.434783 241.173 0.392977L241.601 0.326087C242.042 0.41806 242.509 0.510033 242.639 0.526756C242.769 0.543478 243.094 0.476589 243.249 0.426421C243.405 0.376254 243.963 0.493311 244.093 0.476589L244.197 0.434783C244.34 0.384615 244.457 0.250836 244.573 0.250836C244.872 0.267559 245.17 0.384615 245.456 0.376254C245.819 0.359532 246.17 0.234114 246.546 0.20903L246.871 0.183946C247.221 0.225753 247.753 0.200669 248.026 0.133779L248.312 0.259197L248.493 0.342809C248.805 0.359532 249.441 0.384615 249.882 0.409699C250.324 0.434783 251.699 0.259197 251.998 0.342809C252.297 0.426421 253.945 0.309365 254.996 0.434783L255.983 0.200669C256.269 0.133779 256.736 0.125418 257.008 0.200669L257.489 0.326087C257.943 0.250836 258.527 0.108696 258.8 0.0083612H259.046C259.293 0.0083612 259.54 0.125418 259.773 0.192308L259.903 0.234114C260.033 0.292642 260.825 0.367893 261.681 0.409699C262.538 0.451505 264.68 0.0334448 264.732 0.0501672C264.784 0.0668896 264.887 0.14214 264.965 0.175585C265.043 0.20903 265.705 0.167224 266.082 0.133779C266.458 0.100334 267.782 0.0334448 268.145 0.0585284C268.509 0.083612 269.664 0.309365 269.963 0.384615C270.261 0.459866 271.196 0.267559 271.429 0.367893C271.663 0.468227 272.714 0.125418 273.182 0L273.714 0.267559L273.948 0.384615C274.648 0.27592 275.752 0.175585 276.401 0.167224L276.985 0.183946L277.595 0.200669C278.244 0.284281 279.127 0.225753 279.555 0.0668896L280.113 0.317726C280.555 0.510033 281.048 -0.041806 281.632 0.225753C282.125 0.451505 282.54 0.401338 282.969 0.175585C282.995 0.158863 283.086 0.167224 283.138 0.175585L283.54 0.267559C283.981 0.301003 284.475 0.351171 284.643 0.376254C284.812 0.401338 285.604 0.234114 285.98 0.175585H286.305L286.98 0.200669C287.72 0.200669 288.94 0.175585 289.706 0.158863L290.406 0.175585H290.848C291.328 0.259197 291.912 0.334448 292.159 0.359532C292.405 0.384615 293.003 0.267559 293.184 0.234114C293.366 0.200669 293.976 0.359532 294.145 0.376254L294.171 0.351171L294.534 0.0083612C294.95 0.192308 296.157 0.292642 296.351 0.392977L296.364 0.48495Z" fill="#1C50FE"/>
</svg>
